<svg xmlns="http://www.w3.org/2000/svg" width="32" height="30" viewBox="0 0 32 30"><path fill="#EA4B71" fill-rule="evenodd" d="M27.2 16.4a3.2 3.2 0 0 1-3.1-2.4h-3.667a1.6 1.6 0 0 0-1.578 1.337l-.132.79A3.2 3.2 0 0 1 17.683 18a3.2 3.2 0 0 1 1.04 1.874l.132.789A1.6 1.6 0 0 0 20.433 22h.468a3.201 3.201 0 0 1 6.299.8 3.2 3.2 0 0 1-6.3.8h-.467a3.2 3.2 0 0 1-3.156-2.674l-.132-.789a1.6 1.6 0 0 0-1.578-1.337h-1.268a3.201 3.201 0 0 1-6.198 0H6.299A3.201 3.201 0 0 1 0 18a3.2 3.2 0 0 1 6.3-.8h1.8a3.201 3.201 0 0 1 6.2 0h1.267a1.6 1.6 0 0 0 1.578-1.337l.132-.79a3.2 3.2 0 0 1 3.156-2.673h3.668a3.201 3.201 0 0 1 6.299.8 3.2 3.2 0 0 1-3.2 3.2m0-1.6a1.6 1.6 0 1 0 0-3.2 1.6 1.6 0 0 0 0 3.2m-24 4.8a1.6 1.6 0 1 0 0-3.2 1.6 1.6 0 0 0 0 3.2m9.6-1.6a1.6 1.6 0 1 1-3.2 0 1.6 1.6 0 0 1 3.2 0m12.8 4.8a1.6 1.6 0 1 1-3.2 0 1.6 1.6 0 0 1 3.2 0" clip-rule="evenodd"/></svg>

